
<svg xmlns="http://www.w3.org/2000/svg" version="1.1" xmlns:xlink="http://www.w3.org/1999/xlink" preserveAspectRatio="none" x="0px" y="0px" width="1525px" height="1739px" viewBox="0 0 1525 1739">
<defs>
<g id="Layer1_0_FILL">
<path fill="#990000" stroke="none" d="
M 986.5 557.1
L 986.5 493.2 524.55 493.2 524.55 553 527.45 557.1 986.5 557.1
M 884.55 374.8
L 759.25 0 632.45 374.8 439.75 219.45 524.55 430.15 992.45 430.15 1077.4 219.45 884.55 374.8
M 806.15 316.75
L 759.95 368.3 713.9 316.75 758.65 148.15 806.15 316.75 Z"/>
</g>

<g id="Layer0_0_FILL">
<path fill="#FFFFFF" stroke="none" d="
M 1258.8 448.15
L 1178.05 591.05 914.9 707.7 759.5 961.25 610.1 707.7 346.95 591.05 266.05 448.15 113.7 334.45 161.5 623 113.7 809.6 173.55 1255.75 0 1573.65 343.75 1343.3 385.55 932.2 592.1 1165.4 762.45 1739.95 932.75 1165.4 1139.45 932.2 1180.95 1343.3 1525 1573.65 1351.45 1255.75 1411.3 809.6 1363.35 623 1411.3 334.45 1258.8 448.15 Z"/>
</g>
</defs>

<g transform="matrix( 1, 0, 0, 1, 0,0) ">
<use xlink:href="#Layer1_0_FILL"/>
</g>

<g transform="matrix( 1, 0, 0, 1, 0,0) ">
<use xlink:href="#Layer0_0_FILL"/>
</g>
</svg>
